<mxfile host="65bd71144e">
    <diagram id="KzELdxLwyf88x765OR2N" name="Page-1">
        <mxGraphModel dx="527" dy="790" grid="1" gridSize="10" guides="1" tooltips="1" connect="1" arrows="1" fold="1" page="1" pageScale="1" pageWidth="827" pageHeight="1169" background="none" math="0" shadow="0">
            <root>
                <mxCell id="0"/>
                <mxCell id="1" parent="0"/>
                <mxCell id="3" value="Externe GerÃ¤uchberarbeitung" style="swimlane;" vertex="1" parent="1">
                    <mxGeometry x="90" y="157" width="240" height="200" as="geometry"/>
                </mxCell>
                <mxCell id="5" value="BGP Auswertung" style="sketch=0;pointerEvents=1;shadow=0;dashed=0;html=1;strokeColor=none;labelPosition=center;verticalLabelPosition=bottom;verticalAlign=top;align=center;fillColor=#505050;shape=mxgraph.mscae.intune.conditional_access_exchange" vertex="1" parent="3">
                    <mxGeometry x="40" y="75" width="49" height="50" as="geometry"/>
                </mxCell>
                <mxCell id="4" value="" style="sketch=0;aspect=fixed;html=1;points=[];align=center;image;fontSize=12;image=img/lib/mscae/dep/SQL_Server_Stretch_DB.svg;" vertex="1" parent="1">
                    <mxGeometry x="380" y="370" width="50" height="50" as="geometry"/>
                </mxCell>
                <mxCell id="6" value="BGP" style="swimlane;" vertex="1" parent="1">
                    <mxGeometry x="90" y="390" width="200" height="200" as="geometry"/>
                </mxCell>
            </root>
        </mxGraphModel>
    </diagram>
</mxfile>